<svg xmlns="http://www.w3.org/2000/svg" viewBox="0 0 800 450"><rect width="800" height="450" fill="#f8f9fa"/><text x="400" y="50" fill="#333" font-family="Arial" font-size="28" font-weight="bold" text-anchor="middle">Docker: Multiplataforma</text><g transform="translate(100, 150)"><rect width="80" height="80" x="0" y="0" fill="#0078d4" rx="5"/><path fill="#fff" d="M 20 20 L 38 20 L 38 38 L 20 38 Z M 42 20 L 60 20 L 60 38 L 42 38 Z M 20 42 L 38 42 L 38 60 L 20 60 Z M 42 42 L 60 42 L 60 60 L 42 60 Z"/><text x="40" y="110" fill="#666" font-family="Arial" font-size="14" text-anchor="middle">Windows</text></g><g transform="translate(100, 280)"><rect width="80" height="80" x="0" y="0" fill="#333" rx="5"/><circle cx="40" cy="40" r="25" fill="#f1c40f"/><circle cx="33" cy="35" r="5" fill="#000"/><circle cx="47" cy="35" r="5" fill="#000"/><path fill="none" stroke="#000" stroke-width="2" d="M 30 55 Q 40 65 50 55"/><text x="40" y="110" fill="#666" font-family="Arial" font-size="14" text-anchor="middle">Linux</text></g><g transform="translate(100, 20)"><rect width="80" height="80" x="0" y="130" fill="#7f8c8d" rx="5"/><path fill="#fff" d="M 40 185 Q 40 155 55 155 Q 70 155 70 185 Q 70 205 40 205 Q 10 205 10 185 Q 10 155 25 155 Q 40 155 40 185"/><text x="40" y="240" fill="#666" font-family="Arial" font-size="14" text-anchor="middle">macOS</text></g><path stroke="#3498db" stroke-width="4" d="M 180 70 L 400 225" opacity=".4"/><path stroke="#3498db" stroke-width="4" d="M 180 190 L 400 225" opacity=".4"/><path stroke="#3498db" stroke-width="4" d="M 180 320 L 400 225" opacity=".4"/><g transform="translate(400, 225)"><path fill="#2496ED" d="M -80 20 Q -80 -40 20 -40 Q 60 -40 80 0 L 80 40 L -80 40 Z"/><rect width="20" height="20" x="-60" y="-30" fill="#fff" opacity=".7"/><rect width="20" height="20" x="-35" y="-30" fill="#fff" opacity=".7"/><rect width="20" height="20" x="-10" y="-30" fill="#fff" opacity=".7"/><text x="0" y="80" fill="#2496ED" font-family="Arial" font-size="20" font-weight="bold" text-anchor="middle">Docker Desktop / Engine</text><text x="0" y="105" fill="#7f8c8d" font-family="Arial" font-size="14" text-anchor="middle">&quot;Build once, Run anywhere&quot;</text></g></svg>