<svg xmlns="http://www.w3.org/2000/svg" viewBox="0 0 800 400"><rect width="800" height="400" fill="#f8f9fa"/><text x="200" y="40" fill="#333" font-family="Arial" font-size="24" font-weight="bold" text-anchor="middle">Máquinas Virtuales (Casas)</text><text x="600" y="40" fill="#333" font-family="Arial" font-size="24" font-weight="bold" text-anchor="middle">Contenedores (Edificio)</text><g transform="translate(100, 100)"><g transform="translate(0, 0)"><rect width="80" height="60" x="10" y="100" fill="#aec6cf" stroke="#333" stroke-width="2"/><polygon fill="#ff6961" stroke="#333" stroke-width="2" points="10 100 50 60 90 100"/><rect width="20" height="30" x="40" y="130" fill="#7d7" stroke="#333"/><text x="50" y="180" font-family="Arial" font-size="12" text-anchor="middle">VM 1 (Heavy)</text></g><g transform="translate(100, 0)"><rect width="80" height="60" x="10" y="100" fill="#aec6cf" stroke="#333" stroke-width="2"/><polygon fill="#ff6961" stroke="#333" stroke-width="2" points="10 100 50 60 90 100"/><rect width="20" height="30" x="40" y="130" fill="#7d7" stroke="#333"/><text x="50" y="180" font-family="Arial" font-size="12" text-anchor="middle">VM 2 (Heavy)</text></g><rect width="220" height="30" x="-10" y="210" fill="#ddd" rx="5"/><text x="100" y="230" font-family="Arial" font-size="14" font-weight="bold" text-anchor="middle">Hypervisor / Hardware</text></g><g transform="translate(500, 100)"><rect width="140" height="200" x="30" y="0" fill="#add8e6" stroke="#333" stroke-width="3" rx="5"/><rect width="40" height="30" x="50" y="20" fill="#ffb347" stroke="#333" rx="3"/><rect width="40" height="30" x="110" y="20" fill="#ffb347" stroke="#333" rx="3"/><rect width="40" height="30" x="50" y="70" fill="#ffb347" stroke="#333" rx="3"/><rect width="40" height="30" x="110" y="70" fill="#ffb347" stroke="#333" rx="3"/><rect width="40" height="30" x="50" y="120" fill="#ffb347" stroke="#333" rx="3"/><rect width="40" height="30" x="110" y="120" fill="#ffb347" stroke="#333" rx="3"/><text x="100" y="180" font-family="Arial" font-size="16" font-weight="bold" text-anchor="middle">Containers (Light)</text><rect width="220" height="30" x="-10" y="210" fill="#2c3e50" rx="5"/><text x="100" y="230" fill="#fff" font-family="Arial" font-size="14" font-weight="bold" text-anchor="middle">Shared Host Kernel</text></g><g><text x="0" y="0" fill="#666" font-family="Arial" font-size="14" transform="translate(250, 320)">VMs: Aislamiento fuerte, pero alto consumo de recursos.</text><text x="0" y="25" fill="#666" font-family="Arial" font-size="14" transform="translate(250, 320)">Contenedores: Eficiencia extrema, compartiendo recursos.</text></g></svg>