<svg xmlns="http://www.w3.org/2000/svg" viewBox="0 0 800 450"><rect width="800" height="450" fill="#0b0e14"/><text x="400" y="40" fill="#fff" font-family="Arial" font-size="28" font-weight="bold" text-anchor="middle">Multi-stage Builds: El Cohete Espacial</text><circle cx="50" cy="50" r="1" fill="#fff"/><circle cx="150" cy="80" r="1.5" fill="#fff"/><circle cx="300" cy="20" r="1" fill="#fff"/><circle cx="500" cy="60" r="1" fill="#fff"/><circle cx="700" cy="100" r="1.5" fill="#fff"/><g transform="translate(200, 300)"><path fill="#e67e22" d="M -20 50 Q 0 100 20 50 Z"/><rect width="60" height="130" x="-30" y="-80" fill="#95a5a6" rx="5"/><text x="0" y="-20" fill="#2c3e50" font-family="Arial" font-size="10" font-weight="bold" text-anchor="middle">STAGE 1</text><text x="0" y="0" fill="#2c3e50" font-family="Arial" font-size="10" font-weight="bold" text-anchor="middle">BUILDER</text><text x="0" y="20" fill="#34495e" font-family="Arial" font-size="8" text-anchor="middle">(JDK, Maven, Go)</text><text x="0" y="35" fill="#c0392b" font-family="Arial" font-size="8" text-anchor="middle">800 MB</text></g><path fill="none" stroke="#3498db" stroke-dasharray="5 5" stroke-width="2" marker-end="url(#arrow)" d="M 300 150 Q 400 100 500 150"/><g transform="translate(600, 150)"><path fill="#ecf0f1" stroke="#3498db" stroke-width="2" d="M -30 20 L 30 20 L 20 -40 L -20 -40 Z"/><circle cx="0" cy="-10" r="10" fill="#3498db"/><text x="0" y="45" fill="#2ecc71" font-family="Arial" font-size="12" font-weight="bold" text-anchor="middle">STAGE 2: FINAL</text><text x="0" y="65" fill="#fff" font-family="Arial" font-size="10" text-anchor="middle">Sólo el Binario</text><text x="0" y="80" fill="#2ecc71" font-family="Arial" font-size="10" font-weight="bold" text-anchor="middle">10 MB</text></g><text x="200" y="420" fill="#bdc3c7" font-family="Arial" font-size="14" text-anchor="middle">1. Se construye el artefacto</text><text x="600" y="250" fill="#bdc3c7" font-family="Arial" font-size="14" text-anchor="middle">2. Se copia y se lanza</text><defs><marker id="arrow" markerHeight="6" markerWidth="6" orient="auto-start-reverse" refX="5" refY="5" viewBox="0 0 10 10"><path fill="#3498db" d="M 0 0 L 10 5 L 0 10 z"/></marker></defs></svg>