<svg xmlns="http://www.w3.org/2000/svg" viewBox="0 0 800 450"><rect width="800" height="450" fill="#f5faff"/><text x="400" y="40" fill="#2c3e50" font-family="Arial" font-size="28" font-weight="bold" text-anchor="middle">Docker DNS: La Agenda Digital</text><g transform="translate(325, 80)"><rect width="150" height="200" x="0" y="0" fill="#f1c40f" stroke="#f39c12" stroke-width="3" rx="10"/><rect width="130" height="150" x="10" y="40" fill="#fff" rx="5"/><text x="75" y="25" fill="#d35400" font-family="Arial" font-size="16" font-weight="bold" text-anchor="middle">DNS / Agenda</text><text x="20" y="70" fill="#333" font-family="Courier New" font-size="10">APP -&gt; 172.18.0.2</text><text x="20" y="90" fill="#333" font-family="Courier New" font-size="10">DB -&gt; 172.18.0.3</text><text x="20" y="110" fill="#7f8c8d" font-family="Courier New" font-size="10" font-style="italic">...actualizando...</text></g><g transform="translate(100, 300)"><rect width="80" height="60" x="-40" y="-30" fill="#3498db" rx="5"/><text x="0" y="5" fill="#fff" font-family="Arial" font-size="12" text-anchor="middle">&quot;Frontend&quot;</text><text x="0" y="50" fill="#2980b9" font-family="Arial" font-size="12" font-weight="bold" text-anchor="middle">EL CLIENTE</text><path fill="none" stroke="#333" stroke-width="2" marker-end="url(#arrow)" d="M 40 -10 Q 80 -40 120 -10"/><text x="140" y="-30" fill="#333" font-family="Arial" font-size="12" font-style="italic">&quot;¿Quién es &apos;DB&apos;?&quot;</text></g><g transform="translate(650, 300)"><rect width="80" height="60" x="-40" y="-30" fill="#2ecc71" rx="5"/><text x="0" y="5" fill="#fff" font-family="Arial" font-size="12" text-anchor="middle">&quot;DB&quot;</text><text x="0" y="50" fill="#27ae60" font-family="Arial" font-size="12" font-weight="bold" text-anchor="middle">LA DIRECCIÓN</text><path fill="none" stroke="#27ae60" stroke-dasharray="5 5" stroke-width="2" marker-start="url(#dot)" d="M -50 40 Q -150 100 -250 40"/></g><path stroke="#3498db" stroke-width="2" marker-end="url(#arrow)" d="M 160 280 L 320 200"/><path stroke="#95a5a6" stroke-dasharray="2 2" stroke-width="2" d="M 400 280 L 400 400"/><text x="400" y="420" fill="#7f8c8d" font-family="Arial" font-size="12" text-anchor="middle">Red: &apos;red-tienda&apos; (Custom)</text><defs><marker id="arrow" markerHeight="6" markerWidth="6" orient="auto-start-reverse" refX="5" refY="5" viewBox="0 0 10 10"><path fill="#333" d="M 0 0 L 10 5 L 0 10 z"/></marker><marker id="dot" markerHeight="4" markerWidth="4" refX="5" refY="5" viewBox="0 0 10 10"><circle cx="5" cy="5" r="5" fill="#27ae60"/></marker></defs></svg>