<svg xmlns="http://www.w3.org/2000/svg" viewBox="0 0 800 450"><rect width="800" height="450" fill="#f0f2f5"/><text x="400" y="40" fill="#333" font-family="Arial" font-size="28" font-weight="bold" text-anchor="middle">Backup: El Truco de la Mula de Carga</text><rect width="700" height="300" x="50" y="100" fill="#fff" stroke="#bdc3c7" stroke-dasharray="5 5" rx="10"/><text x="70" y="130" fill="#7f8c8d" font-family="Arial" font-size="14" font-weight="bold">SERVIDOR DOCKER</text><g transform="translate(150, 220)"><rect width="100" height="80" x="-50" y="-40" fill="#34495e" rx="5"/><circle cx="20" cy="0" r="5" fill="#f1c40f"/><text x="0" y="60" fill="#333" font-family="Arial" font-size="12" font-weight="bold" text-anchor="middle">Volumen: &apos;mis-datos&apos;</text></g><g transform="translate(400, 220)"><rect width="120" height="100" x="-60" y="-50" fill="#3498db" stroke="#2980b9" stroke-width="2" rx="10"/><text x="0" y="5" fill="#fff" font-family="Arial" font-size="14" font-weight="bold" text-anchor="middle">Alpine (Mula)</text><text x="0" y="25" fill="#dff9fb" font-family="Arial" font-size="10" text-anchor="middle">--rm (Temporal)</text><path stroke="#f1c40f" stroke-width="4" marker-end="url(#arrow-yellow)" d="M -150 0 L -70 0"/><path stroke="#2ecc71" stroke-width="4" marker-end="url(#arrow-green)" d="M 70 0 L 150 0"/></g><g><path fill="#f1c40f" d="M -40 -30 L 20 -30 L 40 -10 L 40 30 L -40 30 Z" transform="translate(650, 220)"/><text x="0" y="60" fill="#333" font-family="Arial" font-size="12" font-weight="bold" text-anchor="middle" transform="translate(650, 220)">Tu PC: backup.tar.gz</text></g><text x="275" y="190" fill="#2980b9" font-family="Arial" font-size="12" font-weight="bold" text-anchor="middle">1. MONTA DATOS</text><text x="525" y="190" fill="#27ae60" font-family="Arial" font-size="12" font-weight="bold" text-anchor="middle">2. COMPRIME Y SACA</text><defs><marker id="arrow-yellow" markerHeight="6" markerWidth="6" orient="auto-start-reverse" refX="5" refY="5" viewBox="0 0 10 10"><path fill="#f1c40f" d="M 0 0 L 10 5 L 0 10 z"/></marker><marker id="arrow-green" markerHeight="6" markerWidth="6" orient="auto-start-reverse" refX="5" refY="5" viewBox="0 0 10 10"><path fill="#2ecc71" d="M 0 0 L 10 5 L 0 10 z"/></marker></defs></svg>