<svg xmlns="http://www.w3.org/2000/svg" viewBox="0 0 800 450"><rect width="800" height="450" fill="#fffaf0"/><text x="400" y="40" fill="#333" font-family="Arial" font-size="28" font-weight="bold" text-anchor="middle">Redes Avanzadas: Macvlan e IPvlan</text><g transform="translate(400, 350)"><rect width="300" height="60" x="-150" y="0" fill="#34495e" rx="5"/><text x="0" y="35" fill="#fff" font-family="Arial" font-size="16" font-weight="bold" text-anchor="middle">SWITCH / RED LOCAL (192.168.1.0/24)</text></g><g transform="translate(150, 150)"><rect width="160" height="120" x="-80" y="-60" fill="#bdc3c7" rx="10"/><text x="0" y="80" fill="#333" font-family="Arial" font-size="14" font-weight="bold" text-anchor="middle">HOST (Tu PC)</text><text x="0" y="-75" fill="#7f8c8d" font-family="Arial" font-size="12" text-anchor="middle">IP: .20 | MAC: AA:BB</text></g><g transform="translate(550, 150)"><rect width="200" height="120" x="-100" y="-60" fill="#fff" stroke="#e67e22" stroke-width="3" rx="10"/><rect width="180" height="40" x="-90" y="-50" fill="#f39c12"/><text x="0" y="-25" fill="#fff" font-family="Arial" font-size="16" font-weight="bold" text-anchor="middle">IP PROPIA</text><text x="-80" y="20" fill="#333" font-family="Arial" font-size="12">IP: 192.168.1.50</text><text x="-80" y="45" fill="#333" font-family="Arial" font-size="12">MAC: CC:DD (Virtual)</text><text x="0" y="80" fill="#d35400" font-family="Arial" font-size="14" font-weight="bold" text-anchor="middle">Contenedor Macvlan</text></g><path stroke="#333" stroke-width="4" d="M 150 210 L 150 350"/><path stroke="#e67e22" stroke-width="4" d="M 550 210 L 550 350"/><line x1="230" x2="450" y1="150" y2="150" stroke="#e74c3c" stroke-dasharray="10 5" stroke-width="5"/><text x="340" y="140" fill="#c0392b" font-family="Arial" font-size="12" font-weight="bold" text-anchor="middle">¡BLOQUEADO!</text><text x="340" y="170" fill="#c0392b" font-family="Arial" font-size="10" text-anchor="middle">(Aislado del Host)</text><text x="400" y="320" fill="#34495e" font-family="Arial" font-size="12" text-anchor="middle">El switch ve DOS computadoras físicas</text></svg>