<svg xmlns="http://www.w3.org/2000/svg" viewBox="0 0 600 500"><rect width="600" height="500" fill="#2c3e50"/><text x="300" y="40" fill="#ecf0f1" font-family="Arial" font-size="22" font-weight="bold" text-anchor="middle">El Director de Orquesta (Docker Compose)</text><g transform="translate(300, 350)"><path fill="#34495e" stroke="#ecf0f1" stroke-width="2" d="M -30 100 Q 0 -50 30 100"/><circle cx="0" cy="-60" r="25" fill="#34495e" stroke="#ecf0f1" stroke-width="2"/><path stroke="#ecf0f1" stroke-linecap="round" stroke-width="3" d="M -20 -30 L -80 -70"/><path stroke="#ecf0f1" stroke-linecap="round" stroke-width="5" d="M 20 -30 L 120 -100"/><text x="130" y="-110" fill="#f1c40f" font-family="Arial" font-size="14" font-weight="bold" transform="rotate(-30 130 -110)">docker-compose up</text></g><g transform="translate(100, 150)"><rect width="80" height="80" x="0" y="0" fill="#2980b9" stroke="#ecf0f1" stroke-width="2" rx="5"/><text x="40" y="45" fill="#fff" font-family="Arial" font-size="12" font-weight="bold" text-anchor="middle">DATABASE</text><circle cx="40" cy="20" r="5" fill="#f1c40f" opacity=".8"/></g><g transform="translate(260, 100)"><rect width="80" height="80" x="0" y="0" fill="#27ae60" stroke="#ecf0f1" stroke-width="2" rx="5"/><text x="40" y="45" fill="#fff" font-family="Arial" font-size="12" font-weight="bold" text-anchor="middle">BACKEND</text><path stroke="#fff" stroke-width="2" d="M 20 20 L 60 20"/></g><g transform="translate(420, 150)"><rect width="80" height="80" x="0" y="0" fill="#e67e22" stroke="#ecf0f1" stroke-width="2" rx="5"/><text x="40" y="45" fill="#fff" font-family="Arial" font-size="12" font-weight="bold" text-anchor="middle">FRONTEND</text><rect width="30" height="10" x="25" y="15" fill="#fff" opacity=".5"/></g><g transform="translate(350, 420)"><rect width="100" height="60" x="0" y="0" fill="#fff" stroke="#333" rx="3" transform="rotate(-10)"/><text x="5" y="20" fill="#333" font-family="Courier New" font-size="10" transform="rotate(-10)">services:</text><text x="10" y="35" fill="#666" font-family="Courier New" font-size="8" transform="rotate(-10)">db: ...</text><text x="10" y="45" fill="#666" font-family="Courier New" font-size="8" transform="rotate(-10)">app: ...</text><text x="50" y="80" fill="#ecf0f1" font-family="Arial" font-size="14" font-weight="bold" text-anchor="middle">docker-compose.yml</text></g><path fill="none" stroke="#f1c40f" stroke-dasharray="2 2" stroke-width="1" d="M 180 160 Q 300 100 420 160" opacity=".3"/></svg>