<svg xmlns="http://www.w3.org/2000/svg" viewBox="0 0 800 450"><rect width="800" height="450" fill="#fff5f5"/><text x="400" y="40" fill="#c0392b" font-family="Arial" font-size="28" font-weight="bold" text-anchor="middle">Healthchecks: El Latido del Contenedor</text><g transform="translate(150, 200)"><rect width="120" height="160" x="-60" y="-80" fill="#fff" stroke="#bdc3c7" stroke-width="3" rx="10"/><rect width="80" height="40" x="-40" y="-20" fill="#ecf0f1" rx="5"/><text x="0" y="5" fill="#7f8c8d" font-family="Arial" font-size="12" text-anchor="middle">Despertando...</text><circle cx="0" cy="-40" r="15" fill="#f1c40f"><animate attributeName="opacity" dur="1s" repeatCount="indefinite" values="1;0.3;1"/></circle><text x="0" y="100" fill="#f39c12" font-family="Arial" font-size="14" font-weight="bold" text-anchor="middle">STARTING</text></g><g transform="translate(400, 200)"><rect width="120" height="160" x="-60" y="-80" fill="#fff" stroke="#2ecc71" stroke-width="3" rx="10"/><rect width="80" height="40" x="-40" y="-20" fill="#e8f8f5" rx="5"/><text x="0" y="5" fill="#27ae60" font-family="Arial" font-size="12" text-anchor="middle">¡LISTO!</text><path fill="none" stroke="#e74c3c" stroke-width="3" d="M -20 -40 L -10 -40 L -5 -50 L 5 -30 L 10 -40 L 20 -40"><animate attributeName="stroke-dasharray" dur="1.5s" from="0,100" repeatCount="indefinite" to="100,0"/></path><text x="0" y="100" fill="#27ae60" font-family="Arial" font-size="14" font-weight="bold" text-anchor="middle">HEALTHY</text></g><g transform="translate(650, 200)"><rect width="120" height="160" x="-60" y="-80" fill="#fff" stroke="#e74c3c" stroke-width="3" rx="10"/><rect width="80" height="40" x="-40" y="-20" fill="#fdedec" rx="5"/><text x="0" y="5" fill="#c0392b" font-family="Arial" font-size="12" text-anchor="middle">Error 500</text><line x1="-15" x2="15" y1="-55" y2="-25" stroke="#c0392b" stroke-width="4"/><line x1="15" x2="-15" y1="-55" y2="-25" stroke="#c0392b" stroke-width="4"/><text x="0" y="100" fill="#c0392b" font-family="Arial" font-size="14" font-weight="bold" text-anchor="middle">UNHEALTHY</text></g><text x="400" y="380" fill="#7f8c8d" font-family="Arial" font-size="16" text-anchor="middle">Docker Compose espera a que el corazón lata (Healthy) antes de seguir.</text></svg>