<svg xmlns="http://www.w3.org/2000/svg" viewBox="0 0 800 450"><rect width="800" height="450" fill="#f1f2f6"/><text x="400" y="40" fill="#2f3542" font-family="Arial" font-size="28" font-weight="bold" text-anchor="middle">Variables de Entorno: El Panel de Control</text><g transform="translate(100, 100)"><rect width="160" height="220" x="0" y="0" fill="#fff" stroke="#2ed573" stroke-width="3" rx="5"/><text x="80" y="30" fill="#2ed573" font-family="Arial" font-size="16" font-weight="bold" text-anchor="middle">.env</text><line x1="20" x2="140" y1="50" y2="50" stroke="#ced6e0" stroke-width="2"/><text x="25" y="80" fill="#2f3542" font-family="Courier" font-size="12">PORT=8080</text><text x="25" y="105" fill="#2f3542" font-family="Courier" font-size="12">DB_PASS=123</text><text x="25" y="130" fill="#2f3542" font-family="Courier" font-size="12">DEBUG=true</text><text x="80" y="245" fill="#747d8c" font-family="Arial" font-size="12" font-weight="bold" text-anchor="middle">&quot;No se sube a Git&quot;</text></g><g transform="translate(350, 140)"><rect width="100" height="150" x="0" y="0" fill="#3498db" rx="10"/><text x="50" y="75" fill="#fff" font-family="Arial" font-size="14" font-weight="bold" text-anchor="middle">Docker</text><text x="50" y="95" fill="#fff" font-family="Arial" font-size="14" font-weight="bold" text-anchor="middle">Compose</text><path stroke="#2ed573" stroke-width="4" marker-end="url(#arrow-green)" d="M -90 40 L -20 40"/><path stroke="#2ed573" stroke-width="4" marker-end="url(#arrow-green)" d="M -90 90 L -20 90"/></g><g transform="translate(550, 100)"><rect width="200" height="220" x="0" y="0" fill="#2f3542" rx="10"/><text x="100" y="30" fill="#fff" font-family="Arial" font-size="14" font-weight="bold" text-anchor="middle">CONTENEDOR</text><circle cx="50" cy="80" r="15" fill="#57606f"/><line x1="50" x2="60" y1="80" y2="70" stroke="#fff" stroke-width="3"/><text x="100" y="85" fill="#a4b0be" font-family="Arial" font-size="12">Puerto 8080</text><circle cx="50" cy="130" r="15" fill="#57606f"/><line x1="50" x2="40" y1="130" y2="120" stroke="#fff" stroke-width="3"/><text x="100" y="135" fill="#a4b0be" font-family="Arial" font-size="12">Contraseña OK</text><circle cx="50" cy="180" r="15" fill="#57606f"/><line x1="50" x2="50" y1="180" y2="165" stroke="#fff" stroke-width="3"/><text x="100" y="185" fill="#a4b0be" font-family="Arial" font-size="12">Modo: DEBUG</text><path stroke="#3498db" stroke-width="4" marker-end="url(#arrow-blue)" d="M -100 70 L -20 70"/></g><text x="400" y="380" fill="#2f3542" font-family="Arial" font-size="16" font-weight="bold" text-anchor="middle">&quot;Cambia la configuración sin reconstruir la imagen&quot;</text><defs><marker id="arrow-green" markerHeight="6" markerWidth="6" orient="auto-start-reverse" refX="5" refY="5" viewBox="0 0 10 10"><path fill="#2ed573" d="M 0 0 L 10 5 L 0 10 z"/></marker><marker id="arrow-blue" markerHeight="6" markerWidth="6" orient="auto-start-reverse" refX="5" refY="5" viewBox="0 0 10 10"><path fill="#3498db" d="M 0 0 L 10 5 L 0 10 z"/></marker></defs></svg>