<svg xmlns="http://www.w3.org/2000/svg" viewBox="0 0 800 450"><rect width="800" height="450" fill="#f8f9fa"/><text x="400" y="45" fill="#2d3436" font-family="Arial" font-size="28" font-weight="bold" text-anchor="middle">Servicios: El Contrato de Réplicas</text><g transform="translate(50, 80)"><rect width="200" height="250" x="0" y="0" fill="#fff" stroke="#3498db" stroke-width="3" rx="5"/><text x="100" y="30" fill="#3498db" font-family="Arial" font-size="16" font-weight="bold" text-anchor="middle">CONTRATO SWARM</text><line x1="20" x2="180" y1="50" y2="50" stroke="#ced6e0" stroke-width="2"/><text x="25" y="80" fill="#2d3436" font-family="Arial" font-size="14">Servicio: &quot;Web&quot;</text><text x="25" y="110" fill="#2d3436" font-family="Arial" font-size="14">Imagen: nginx:v1</text><text x="25" y="140" fill="#e67e22" font-family="Arial" font-size="18" font-weight="bold">Réplicas: 3</text><circle cx="160" cy="200" r="25" fill="#3498db" opacity=".3"/><text x="160" y="205" font-size="20" text-anchor="middle">✓</text></g><g transform="translate(300, 100)"><rect width="120" height="100" x="0" y="0" fill="#dfe6e9" rx="10"/><text x="60" y="-10" fill="#636e72" font-family="Arial" font-size="12" font-weight="bold" text-anchor="middle">NODO A</text><rect width="80" height="60" x="20" y="20" fill="#3498db" rx="5"/><text x="60" y="55" fill="#fff" font-family="Arial" font-size="12" text-anchor="middle">Réplica 1</text><rect width="120" height="100" x="150" y="0" fill="#dfe6e9" rx="10"/><text x="210" y="-10" fill="#636e72" font-family="Arial" font-size="12" font-weight="bold" text-anchor="middle">NODO B</text><rect width="80" height="60" x="170" y="20" fill="#3498db" rx="5"/><text x="210" y="55" fill="#fff" font-family="Arial" font-size="12" text-anchor="middle">Réplica 2</text><rect width="120" height="100" x="300" y="0" fill="#fab1a0" opacity=".5" rx="10"/><text x="360" y="-10" fill="#d63031" font-family="Arial" font-size="12" font-weight="bold" text-anchor="middle">NODO C (DOWN)</text><text x="360" y="60" font-size="40" text-anchor="middle">❌</text><path fill="none" stroke="#e67e22" stroke-dasharray="5 5" stroke-width="4" marker-end="url(#arrow-orange)" d="M 360 120 Q 360 200 220 200 L 220 120"/><text x="300" y="220" fill="#e67e22" font-family="Arial" font-size="12" font-weight="bold" text-anchor="middle">¡AUTO-CURACIÓN!</text><rect id="new-rep" width="80" height="60" x="170" y="120" fill="#2ecc71" opacity="0" rx="5"><animate fill="freeze" attributeName="opacity" dur="2s" values="0;1"/></rect><text id="new-rep-text" x="210" y="155" fill="#fff" font-family="Arial" font-size="12" opacity="0" text-anchor="middle">Réplica 3 <animate fill="freeze" attributeName="opacity" dur="2s" values="0;1"/></text></g><text x="400" y="400" fill="#2f3542" font-family="Arial" font-size="16" font-weight="bold" text-anchor="middle">&quot;El clúster no descansa hasta que la realidad coincida con tu contrato&quot;</text><defs><marker id="arrow-orange" markerHeight="6" markerWidth="6" orient="auto-start-reverse" refX="5" refY="5" viewBox="0 0 10 10"><path fill="#e67e22" d="M 0 0 L 10 5 L 0 10 z"/></marker></defs></svg>