<svg xmlns="http://www.w3.org/2000/svg" viewBox="0 0 800 500"><rect width="800" height="500" fill="#e0f7fa"/><path fill="#00acc1" d="M 0 450 Q 200 420 400 450 T 800 450 L 800 500 L 0 500 Z" opacity=".6"/><text x="400" y="40" fill="#01579b" font-family="Arial" font-size="24" font-weight="bold" text-anchor="middle">Kubernetes: La Flota de Contenedores</text><g transform="translate(650, 80)"><rect width="80" height="40" x="-40" y="-20" fill="#01579b" rx="10"/><circle cx="0" cy="0" r="10" fill="#e1f5fe"/><path stroke="#01579b" stroke-width="4" d="M -60 0 L -40 0 M 40 0 L 60 0"/><text x="0" y="40" fill="#01579b" font-family="Arial" font-size="14" font-weight="bold" text-anchor="middle">Control Plane</text><text x="0" y="55" fill="#01579b" font-family="Arial" font-size="10" text-anchor="middle">(El Almirante)</text><path stroke="#01579b" stroke-dasharray="5 5" d="M 0 60 L -150 250" opacity=".3"/></g><g><path fill="#546e7a" stroke="#263238" stroke-width="3" d="M 0 0 L 500 0 L 450 120 L 50 120 Z" transform="translate(100, 300)"/><text x="250" y="145" fill="#263238" font-family="Arial" font-size="18" font-weight="bold" text-anchor="middle" transform="translate(100, 300)">Worker Node (Carguero)</text><g transform="translate(100, 300) translate(50, -60)"><rect width="100" height="60" x="0" y="0" fill="#fff" stroke="#01579b" stroke-width="2" rx="5"/><text x="50" y="25" fill="#01579b" font-family="Arial" font-size="12" font-weight="bold" text-anchor="middle">Pod A</text><rect width="50" height="20" x="25" y="30" fill="#81d4fa" rx="3"/><text x="50" y="45" fill="#01579b" font-family="Arial" font-size="8" text-anchor="middle">Container</text></g><g transform="translate(100, 300) translate(180, -60)"><rect width="100" height="60" x="0" y="0" fill="#fff" stroke="#01579b" stroke-width="2" rx="5"/><text x="50" y="25" fill="#01579b" font-family="Arial" font-size="12" font-weight="bold" text-anchor="middle">Pod B</text><rect width="30" height="20" x="15" y="30" fill="#81d4fa" rx="3"/><rect width="30" height="20" x="55" y="30" fill="#b0bec5" rx="3"/><text x="50" y="45" fill="#01579b" font-family="Arial" font-size="8" text-anchor="middle">Multi-container</text></g><g transform="translate(100, 300) translate(310, -60)"><rect width="100" height="60" x="0" y="0" fill="#fff" stroke="#01579b" stroke-width="2" rx="5"/><text x="50" y="25" fill="#01579b" font-family="Arial" font-size="12" font-weight="bold" text-anchor="middle">Pod C</text><rect width="50" height="20" x="25" y="30" fill="#81d4fa" rx="3"/></g><g transform="translate(100, 300) translate(460, -80)"><rect width="30" height="60" x="-10" y="10" fill="#37474f" rx="3"/><circle cx="5" cy="0" r="10" fill="#37474f"/><text x="5" y="85" fill="#37474f" font-family="Arial" font-size="12" font-weight="bold" text-anchor="middle">Kubelet</text></g></g><g><text x="0" y="0" fill="#555" font-family="Arial" font-size="12" transform="translate(50, 480)">* Pod: La unidad mínima que K8s puede mover. Es el &quot;camarote&quot; del contenedor.</text></g></svg>