<svg xmlns="http://www.w3.org/2000/svg" viewBox="0 0 800 450"><rect width="800" height="450" fill="#2ecc71" opacity=".2"/><path fill="#27ae60" d="M 0 400 Q 400 350 800 400 L 800 450 L 0 450 Z" opacity=".3"/><text x="400" y="45" fill="#2d3436" font-family="Arial" font-size="28" font-weight="bold" text-anchor="middle">Self-Healing: El Pastor y el Rebaño</text><g transform="translate(150, 200)"><circle cx="0" cy="-40" r="15" fill="#2d3436"/><rect width="20" height="40" x="-10" y="-25" fill="#2d3436" rx="5"/><rect width="40" height="5" x="-5" y="15" fill="#2d3436" rx="2"/><text x="0" y="55" fill="#2d3436" font-family="Arial" font-size="14" font-weight="bold" text-anchor="middle">ReplicaSet</text><text x="0" y="72" fill="#2d3436" font-family="Arial" font-size="12" text-anchor="middle">(El Pastor)</text><path fill="#fff" stroke="#2d3436" d="M 20 -40 L 60 -60 L 60 -20 Z"/><rect width="120" height="40" x="60" y="-70" fill="#fff" stroke="#2d3436" rx="5"/><text x="120" y="-45" fill="#2ecc71" font-family="Arial" font-size="12" font-weight="bold" text-anchor="middle">¡Esa oveja ha muerto!</text></g><g><g transform="translate(450, 150) translate(0, 0)"><ellipse cx="0" cy="0" fill="#fff" rx="25" ry="18"/><circle cx="20" cy="-10" r="8" fill="#2d3436"/><text x="0" y="35" fill="#2d3436" font-family="Arial" font-size="12" text-anchor="middle">Pod 1</text></g><g opacity=".3" transform="translate(450, 150) translate(100, 50)"><ellipse cx="0" cy="0" fill="#fff" rx="25" ry="18"/><circle cx="20" cy="-10" r="8" fill="#2d3436"/><text x="15" y="-15" font-size="20">☠️</text><text x="0" y="35" fill="#2d3436" font-family="Arial" font-size="12" text-anchor="middle">Pod 2 (Murió)</text></g><g transform="translate(450, 150) translate(200, 0)"><ellipse cx="0" cy="0" fill="#fff" stroke="#3498db" stroke-dasharray="5 5" rx="25" ry="18"/><circle cx="20" cy="-10" r="8" fill="#3498db" opacity=".5"/><text x="0" y="35" fill="#3498db" font-family="Arial" font-size="12" text-anchor="middle">Pod 3 (Nuevo)</text></g></g><g transform="translate(400, 350)"><rect width="300" height="40" x="-150" y="0" fill="#3498db" rx="20"/><text x="0" y="25" fill="#fff" font-family="Arial" font-size="16" font-weight="bold" text-anchor="middle">Deployment: &quot;Mantén 3 ovejas vivas&quot;</text></g><text x="400" y="420" fill="#2d3436" font-family="Arial" font-size="16" font-weight="bold" text-anchor="middle">&quot;El ReplicaSet no descansa. El Deployment es la ley.&quot;</text></svg>