<svg xmlns="http://www.w3.org/2000/svg" viewBox="0 0 800 450"><rect width="800" height="450" fill="#f1f2f6"/><text x="400" y="45" fill="#2d3436" font-family="Arial" font-size="28" font-weight="bold" text-anchor="middle">Services: El Recepcionista del Clúster</text><g transform="translate(50, 200)"><circle cx="0" cy="-20" r="15" fill="#3498db"/><path fill="#3498db" d="M -15 10 L 15 10 L 10 40 L -10 40 Z"/><text x="0" y="60" fill="#3498db" font-family="Arial" font-size="12" text-anchor="middle">Usuario</text><path stroke="#3498db" stroke-width="3" marker-end="url(#arrow-blue)" d="M 25 10 L 100 10"/><text x="65" y="0" fill="#3498db" font-family="Arial" font-size="10" text-anchor="middle">Llamada a IP Fija</text></g><g transform="translate(200, 150)"><rect width="150" height="150" x="0" y="0" fill="#8e44ad" opacity=".1" rx="10"/><text x="75" y="30" fill="#8e44ad" font-family="Arial" font-size="16" font-weight="bold" text-anchor="middle">Service (SVC)</text><rect width="90" height="40" x="30" y="60" fill="#2d3436" rx="5"/><circle cx="50" cy="80" r="10" fill="#8e44ad"/><text x="75" y="125" fill="#2d3436" font-family="Arial" font-size="12" text-anchor="middle">&quot;¿Con qué Pod</text><text x="75" y="140" fill="#2d3436" font-family="Arial" font-size="12" text-anchor="middle">le comunico?&quot;</text></g><g><g transform="translate(450, 100) translate(50, 0)"><rect width="120" height="60" x="0" y="0" fill="#fff" stroke="#2ecc71" stroke-width="2" rx="5"/><text x="60" y="35" fill="#27ae60" font-family="Arial" font-size="14" font-weight="bold" text-anchor="middle">Pod A (Ext 101)</text></g><g transform="translate(450, 100) translate(50, 90)"><rect width="120" height="60" x="0" y="0" fill="#fff" stroke="#2ecc71" stroke-width="2" rx="5"/><text x="60" y="35" fill="#27ae60" font-family="Arial" font-size="14" font-weight="bold" text-anchor="middle">Pod B (Ext 102)</text></g><g transform="translate(450, 100) translate(50, 180)"><rect width="120" height="60" x="0" y="0" fill="#fff" stroke="#2ecc71" stroke-width="2" rx="5"/><text x="60" y="35" fill="#27ae60" font-family="Arial" font-size="14" font-weight="bold" text-anchor="middle">Pod C (Ext 103)</text></g></g><path stroke="#8e44ad" stroke-dasharray="5 5" stroke-width="2" marker-end="url(#arrow-purple)" d="M 350 225 L 500 130"/><path stroke="#8e44ad" stroke-width="2" marker-end="url(#arrow-purple)" d="M 350 225 L 500 225"/><path stroke="#8e44ad" stroke-dasharray="5 5" stroke-width="2" marker-end="url(#arrow-purple)" d="M 350 225 L 500 310"/><defs><marker id="arrow-blue" markerHeight="6" markerWidth="6" orient="auto-start-reverse" refX="5" refY="5" viewBox="0 0 10 10"><path fill="#3498db" d="M 0 0 L 10 5 L 0 10 z"/></marker><marker id="arrow-purple" markerHeight="6" markerWidth="6" orient="auto-start-reverse" refX="5" refY="5" viewBox="0 0 10 10"><path fill="#8e44ad" d="M 0 0 L 10 5 L 0 10 z"/></marker></defs><text x="400" y="420" fill="#2d3436" font-family="Arial" font-size="16" font-weight="bold" text-anchor="middle">&quot;El Service es la cara pública. Los Pods son los trabajadores anónimos.&quot;</text></svg>